:FULLY-SPECIFIED
:FORCE-ALL-JOINTS-BE-3DOF
:DEGREES
49
root 8.59402 15.8609 -29.4605 6.66793 -10.1737 -3.18489
lfemur -39.6175 8.41061 -17.7854
ltibia 38.5276 0 0
lfoot -4.1176 6.72528 0
ltoes -2.04233 0 0
rfemur 16.7753 4.35236 21.2172
rtibia 19.5407 0 0
rfoot 3.38911 0.24968 0
rtoes -15.1578 0 0
lowerback -6.77526 0.60235 0.111804
upperback -2.24578 0.718657 3.49461
thorax 1.43742 0.363207 3.60142
lowerneck -21.3193 -4.24734 -12.9247
upperneck 16.9761 -4.98031 14.3885
head 9.59351 -1.60713 6.53381
lclavicle 8.51047e-15 7.15625e-15 0
lhumerus -45.1397 -3.16386 90.0628
lradius 21.1155 0 0
lwrist -4.08485 0 0
lhand 4.04619 -16.4142 0
lfingers 7.12502 0 0
lthumb 29.4598 11.2695 0
rclavicle 8.51047e-15 7.15625e-15 0
rhumerus -47.1264 19.779 -94.7034
rradius 49.2455 0 0
rwrist -25.0408 0 0
rhand -30.4695 -28.7895 0
rfingers 7.12502 0 0
rthumb -3.77081 -58.7359 0
50
root 8.62848 15.8884 -29.317 6.63819 -10.3685 -2.93741
lfemur -38.9489 8.49584 -18.2131
ltibia 38.3649 0 0
lfoot -4.70499 6.70366 0
ltoes -2.22064 0 0
rfemur 15.3882 3.86068 20.6273
rtibia 22.3818 0 0
rfoot 4.38062 -0.197587 0
rtoes -14.4901 0 0
lowerback -6.6643 0.62934 -0.03556
upperback -2.30366 0.768466 3.3903
thorax 1.31237 0.390107 3.57729
lowerneck -21.4126 -4.24498 -12.8495
upperneck 17.0778 -4.99516 14.3626
head 9.64552 -1.60821 6.51362
lclavicle 8.1274e-15 1.09994e-14 0
lhumerus -44.868 -3.00267 89.7086
lradius 20.888 0 0
lwrist -4.53342 0 0
lhand 3.87504 -16.5797 0
lfingers 7.12502 0 0
lthumb 29.2963 11.132 0
rclavicle 8.1274e-15 1.09994e-14 0
rhumerus -46.6459 19.2252 -94.5598
rradius 47.9039 0 0
rwrist -24.4685 0 0
rhand -30.2686 -28.4709 0
rfingers 7.12502 0 0
rthumb -3.57683 -58.4202 0
51
root 8.66294 15.9159 -29.1736 6.60846 -10.5633 -2.68993
lfemur -38.2802 8.58106 -18.6408
ltibia 38.2023 0 0
lfoot -5.29237 6.68203 0
ltoes -2.39894 0 0
rfemur 14.0011 3.36899 20.0374
rtibia 25.2229 0 0
rfoot 5.37213 -0.644853 0
rtoes -13.8224 0 0
lowerback -6.55335 0.656329 -0.182924
upperback -2.36154 0.818275 3.28598
thorax 1.18733 0.417006 3.55315
lowerneck -21.5058 -4.24262 -12.7744
upperneck 17.1795 -5.01001 14.3367
head 9.69753 -1.60928 6.49342
lclavicle 7.74432e-15 1.48426e-14 0
lhumerus -44.5964 -2.84149 89.3544
lradius 20.6605 0 0
lwrist -4.98199 0 0
lhand 3.70388 -16.7453 0
lfingers 7.12502 0 0
lthumb 29.1329 10.9946 0
rclavicle 7.74432e-15 1.48426e-14 0
rhumerus -46.1654 18.6713 -94.4162
rradius 46.5622 0 0
rwrist -23.8962 0 0
rhand -30.0678 -28.1522 0
rfingers 7.12502 0 0
rthumb -3.38285 -58.1044 0
52
root 8.6974 15.9434 -29.0301 6.57872 -10.7582 -2.44246
lfemur -37.6116 8.66629 -19.0686
ltibia 38.0396 0 0
lfoot -5.87976 6.66041 0
ltoes -2.57725 0 0
rfemur 12.614 2.87731 19.4475
rtibia 28.064 0 0
rfoot 6.36364 -1.09212 0
rtoes -13.1547 0 0
lowerback -6.44239 0.683319 -0.330288
upperback -2.41942 0.868084 3.18167
thorax 1.06228 0.443905 3.52902
lowerneck -21.5991 -4.24026 -12.6992
upperneck 17.2812 -5.02486 14.3108
head 9.74953 -1.61036 6.47323
lclavicle 7.36124e-15 1.86858e-14 0
lhumerus -44.3247 -2.68031 89.0001
lradius 20.4329 0 0
lwrist -5.43056 0 0
lhand 3.53273 -16.9108 0
lfingers 7.12502 0 0
lthumb 28.9694 10.8571 0
rclavicle 7.36124e-15 1.86858e-14 0
rhumerus -45.6849 18.1175 -94.2725
rradius 45.2206 0 0
rwrist -23.3239 0 0
rhand -29.8669 -27.8336 0
rfingers 7.12502 0 0
rthumb -3.18887 -57.7887 0
53
root 8.73186 15.9709 -28.8866 6.54898 -10.953 -2.19498
lfemur -36.943 8.75152 -19.4963
ltibia 37.8769 0 0
lfoot -6.46715 6.63879 0
ltoes -2.75556 0 0
rfemur 11.2269 2.38563 18.8576
rtibia 30.9051 0 0
rfoot 7.35516 -1.53939 0
rtoes -12.487 0 0
lowerback -6.33143 0.710308 -0.477652
upperback -2.4773 0.917892 3.07736
thorax 0.937239 0.470805 3.50488
lowerneck -21.6924 -4.23789 -12.624
upperneck 17.383 -5.03971 14.2848
head 9.80154 -1.61144 6.45304
lclavicle 6.97817e-15 2.25289e-14 0
lhumerus -44.0531 -2.51912 88.6459
lradius 20.2054 0 0
lwrist -5.87913 0 0
lhand 3.36158 -17.0763 0
lfingers 7.12502 0 0
lthumb 28.8059 10.7196 0
rclavicle 6.97817e-15 2.25289e-14 0
rhumerus -45.2044 17.5637 -94.1289
rradius 43.879 0 0
rwrist -22.7517 0 0
rhand -29.666 -27.515 0
rfingers 7.12502 0 0
rthumb -2.9949 -57.473 0
54
root 8.76632 15.9984 -28.7432 6.51925 -11.1478 -1.9475
lfemur -36.2743 8.83674 -19.924
ltibia 37.7143 0 0
lfoot -7.05453 6.61716 0
ltoes -2.93386 0 0
rfemur 9.83977 1.89394 18.2677
rtibia 33.7462 0 0
rfoot 8.34667 -1.98665 0
rtoes -11.8193 0 0
lowerback -6.22048 0.737298 -0.625016
upperback -2.53518 0.967701 2.97304
thorax 0.812193 0.497704 3.48074
lowerneck -21.7856 -4.23553 -12.5489
upperneck 17.4847 -5.05456 14.2589
head 9.85355 -1.61251 6.43284
lclavicle 6.5951e-15 2.63721e-14 0
lhumerus -43.7814 -2.35794 88.2917
lradius 19.9779 0 0
lwrist -6.3277 0 0
lhand 3.19042 -17.2419 0
lfingers 7.12502 0 0
lthumb 28.6425 10.5822 0
rclavicle 6.5951e-15 2.63721e-14 0
rhumerus -44.7239 17.0098 -93.9853
rradius 42.5373 0 0
rwrist -22.1794 0 0
rhand -29.4652 -27.1963 0
rfingers 7.12502 0 0
rthumb -2.80092 -57.1572 0
55
root 8.80078 16.0259 -28.5997 6.48951 -11.3426 -1.70002
lfemur -35.6057 8.92197 -20.3517
ltibia 37.5516 0 0
lfoot -7.64192 6.59554 0
ltoes -3.11217 0 0
rfemur 8.45266 1.40226 17.6778
rtibia 36.5873 0 0
rfoot 9.33818 -2.43392 0
rtoes -11.1516 0 0
lowerback -6.10952 0.764287 -0.77238
upperback -2.59306 1.01751 2.86873
thorax 0.687148 0.524604 3.45661
lowerneck -21.8789 -4.23317 -12.4737
upperneck 17.5864 -5.06941 14.233
head 9.90556 -1.61359 6.41265
lclavicle 6.21202e-15 3.02153e-14 0
lhumerus -43.5098 -2.19675 87.9375
lradius 19.7504 0 0
lwrist -6.77627 0 0
lhand 3.01927 -17.4074 0
lfingers 7.12502 0 0
lthumb 28.479 10.4447 0
rclavicle 6.21202e-15 3.02153e-14 0
rhumerus -44.2434 16.456 -93.8417
rradius 41.1957 0 0
rwrist -21.6071 0 0
rhand -29.2643 -26.8777 0
rfingers 7.12502 0 0
rthumb -2.60694 -56.8415 0
